<svg width="14" height="14" viewBox="0 0 14 14" fill="none" xmlns="http://www.w3.org/2000/svg">
<path d="M5.83366 1.75H8.16699C9.40467 1.75 10.5917 2.24167 11.4668 3.11684C12.342 3.992 12.8337 5.17899 12.8337 6.41667C12.8337 7.65434 12.342 8.84133 11.4668 9.7165C10.5917 10.5917 9.40467 11.0833 8.16699 11.0833V13.125C5.25033 11.9583 1.16699 10.2083 1.16699 6.41667C1.16699 5.17899 1.65866 3.992 2.53383 3.11684C3.409 2.24167 4.59598 1.75 5.83366 1.75ZM7.00033 9.91667H8.16699C9.09525 9.91667 9.98549 9.54792 10.6419 8.89154C11.2982 8.23516 11.667 7.34492 11.667 6.41667C11.667 5.48841 11.2982 4.59817 10.6419 3.94179C9.98549 3.28542 9.09525 2.91667 8.16699 2.91667H5.83366C4.9054 2.91667 4.01516 3.28542 3.35879 3.94179C2.70241 4.59817 2.33366 5.48841 2.33366 6.41667C2.33366 8.5225 3.76983 9.89683 7.00033 11.3633V9.91667Z" fill="white"/>
</svg>
